<?xml version="1.0" standalone="no"?><!DOCTYPE svg PUBLIC "-//W3C//DTD SVG 1.1//EN" "http://www.w3.org/Graphics/SVG/1.1/DTD/svg11.dtd"><svg t="1749451579877" class="icon" viewBox="0 0 1024 1024" version="1.1" xmlns="http://www.w3.org/2000/svg" p-id="860" xmlns:xlink="http://www.w3.org/1999/xlink" width="200" height="200"><path d="M916.48 501.76V153.6a46.08 46.08 0 0 0-46.08-46.08h-348.16a10.24 10.24 0 0 0-10.24 10.24v71.68c0 5.632 4.608 10.24 10.24 10.24h236.9024l-221.2864 221.2864a10.24 10.24 0 0 0 0 14.4896l50.688 50.688a10.24 10.24 0 0 0 14.4896 0L824.32 264.8576V501.76c0 5.632 4.608 10.24 10.24 10.24h71.68a10.24 10.24 0 0 0 10.24-10.24zM107.52 522.24V870.4a46.08 46.08 0 0 0 46.08 46.08h348.16a10.24 10.24 0 0 0 10.24-10.24v-71.68a10.24 10.24 0 0 0-10.24-10.24H264.8576l221.2864-221.2864a10.24 10.24 0 0 0 0-14.4896l-50.688-50.688a10.24 10.24 0 0 0-14.4896 0L199.68 759.1424V522.24a10.24 10.24 0 0 0-10.24-10.24H117.76a10.24 10.24 0 0 0-10.24 10.24z" fill="#595E66" p-id="861"></path></svg>